<svg xmlns="http://www.w3.org/2000/svg" width="32" height="32" viewBox="0 0 32 32" role="img" aria-label="JII favicon">
  <title>JII favicon</title>
  <g fill="#006bb6">
    <rect x="5" y="5" width="2" height="19" rx="1"/>
    <path d="M3 23c0 3 2.4 5 5.8 5h1.6v-2.4H8.8C6.5 25.6 5 24.4 5 22.4V20H3v3z"/>
    <rect x="13" y="5" width="2" height="23" rx="1"/>
    <rect x="22" y="5" width="2" height="23" rx="1"/>
  </g>
  <g fill="#05111f">
    <path d="M7 5h7v2.6h-2.1v14.7c0 4-2.7 6.7-7.1 6.7H3.6v-3.2h1.3c2.3 0 3.7-1.4 3.7-3.7V7.6H7V5z"/>
    <path d="M16 5h7v2.6h-1.8v18.8H23V29h-7v-2.6h1.8V7.6H16V5z"/>
    <path d="M25 5h5v2.6h-1.4v18.8H30V29h-5v-2.6h1.4V7.6H25V5z"/>
  </g>
</svg>
