<svg xmlns="http://www.w3.org/2000/svg" width="1024" height="1024" viewBox="0 0 1024 1024" role="img" aria-labelledby="title desc">
  <title id="title">JII monogram favicon</title>
  <desc id="desc">A white square favicon with navy J and I initials separated by a thin gold vertical line.</desc>
  <rect width="1024" height="1024" fill="#ffffff"/>
  <path fill="#1b3158" d="M310 319c30 2 80 2 110 0v9c-27 1-34 5-35 32l-1 200c-1 100-40 140-98 144v-8c43-5 60-38 60-121l-1-205c0-32-6-40-35-42z"/>
  <rect x="520" y="319" width="5" height="305" fill="#b8965a"/>
  <path fill="#1b3158" d="M628 319c31 2 79 2 110 0v9c-27 1-34 5-34 32v223c0 28 7 33 34 34v9c-31-2-79-2-110 0v-9c27-1 34-6 34-34V360c0-27-7-31-34-32z"/>
</svg>
