<svg xmlns="http://www.w3.org/2000/svg" width="1200" height="630" viewBox="0 0 1200 630" role="img" aria-labelledby="title desc">
  <title id="title">Japan Investor Interface logo</title>
  <desc id="desc">A refined navy and gold monogram logo with the initials JII for Japan Investor Interface.</desc>
  <defs>
    <linearGradient id="bg" x1="0" y1="0" x2="1" y2="1">
      <stop offset="0%" stop-color="#0f1c28"/>
      <stop offset="100%" stop-color="#172333"/>
    </linearGradient>
    <linearGradient id="gold" x1="0" y1="0" x2="1" y2="0">
      <stop offset="0%" stop-color="#d8bc88"/>
      <stop offset="50%" stop-color="#b8965a"/>
      <stop offset="100%" stop-color="#e2c99a"/>
    </linearGradient>
  </defs>

  <rect width="1200" height="630" fill="url(#bg)"/>
  <rect x="72" y="72" width="1056" height="486" fill="none" stroke="rgba(184,150,90,0.45)" stroke-width="2"/>

  <g fill="url(#gold)">
    <path d="M312 178h64v196c0 56-30 94-88 94-18 0-34-4-48-11l16-48c8 4 16 6 25 6 20 0 31-14 31-41V178z"/>
    <path d="M512 178h68l98 272h-65l-19-58h-98l-19 58h-63l98-272zm66 165-33-102-34 102h67z"/>
    <path d="M764 178h64v272h-64V178z"/>
  </g>

  <text x="600" y="510" text-anchor="middle" fill="#f4efe6" font-family="'Noto Serif JP','Times New Roman',serif" font-size="42" letter-spacing="4">JAPAN INVESTOR INTERFACE</text>
</svg>
