<svg xmlns="http://www.w3.org/2000/svg" width="88" height="88" viewBox="0 0 88 88" role="img" aria-labelledby="title desc">
  <title id="title">JII monogram</title>
  <desc id="desc">Navy J and I initials separated by a thin gold vertical line.</desc>
  <rect width="88" height="88" fill="none"/>
  <g fill="#1a2a4a">
    <path d="M12 14c6 .3 16 .3 22 0v2c-5 .2-6.5 1.1-6.5 6.4l-.2 34.8C27.2 74 19 80.5 7.5 81.5v-2c8.8-1.1 12.2-6.5 12.2-20.6l-.2-35.4c0-6.1-1.2-7.2-7.5-7.5z"/>
    <path d="M58 14c6.2 .3 16 .3 22 0v2c-5.5 .2-6.8 1.1-6.8 6.4v39.2c0 5.3 1.3 6.4 6.8 6.6v2c-6-.3-15.8-.3-22 0v-2c5.5-.2 6.8-1.3 6.8-6.6V22.4c0-5.3-1.3-6.2-6.8-6.4z"/>
  </g>
  <rect x="44" y="14" width="2.5" height="58" fill="#b08a4a"/>
</svg>
