<svg xmlns="http://www.w3.org/2000/svg" width="520" height="88" viewBox="0 0 520 88" role="img" aria-labelledby="title desc">
  <title id="title">Japan Investor Interface logo</title>
  <desc id="desc">JII monogram with a gold vertical bar and Japan Investor Interface Co., Ltd. wordmark.</desc>
  <rect width="520" height="88" fill="none"/>
  <g fill="#1a2a4a">
    <path d="M20 16c7 .4 19 .4 26 0v2c-6 .2-8 1.2-8 7.5l-.2 38c-.2 18.5-9.6 25.8-23.2 27v-2c10.2-1.2 14.2-7.2 14.2-22.7l-.2-39c0-7.1-1.4-8.5-8.6-8.8z"/>
    <path d="M112 16c7.4 .4 18.9 .4 26 0v2c-6.5 .2-8 1.2-8 7.5v42c0 6.2 1.5 7.4 8 7.7v2c-7.1-.4-18.6-.4-26 0v-2c6.5-.3 8-1.5 8-7.7v-42c0-6.3-1.5-7.3-8-7.5z"/>
  </g>
  <rect x="76" y="14" width="3" height="64" fill="#b08a4a"/>
  <g fill="#1a2a4a" font-family="'Noto Serif JP','Yu Mincho','Hiragino Mincho ProN',serif">
    <text x="168" y="42" font-size="24" font-weight="400" letter-spacing=".04em">Japan Investor Interface</text>
    <text x="170" y="64" font-size="13" font-weight="400" letter-spacing=".12em">Co., Ltd.</text>
  </g>
</svg>
